<svg xmlns="http://www.w3.org/2000/svg" width="257mm" height="364mm" viewBox="0 0 1285 1820" font-family="Noto Sans CJK KR, sans-serif">
  <defs>
    <linearGradient id="bg" x1="0%" y1="0%" x2="100%" y2="100%">
      <stop offset="0%" stop-color="#0b0620"/>
      <stop offset="35%" stop-color="#3a0f5e"/>
      <stop offset="60%" stop-color="#a31f5c"/>
      <stop offset="80%" stop-color="#e0552f"/>
      <stop offset="100%" stop-color="#ffc24b"/>
    </linearGradient>
    <radialGradient id="sun" cx="50%" cy="50%" r="50%">
      <stop offset="0%" stop-color="#fff6d8"/>
      <stop offset="45%" stop-color="#ffce5c" stop-opacity="0.95"/>
      <stop offset="75%" stop-color="#ff8a3d" stop-opacity="0.55"/>
      <stop offset="100%" stop-color="#ff8a3d" stop-opacity="0"/>
    </radialGradient>
    <radialGradient id="nebulaPink" cx="50%" cy="50%" r="50%">
      <stop offset="0%" stop-color="#ff4fa3" stop-opacity="0.55"/>
      <stop offset="100%" stop-color="#ff4fa3" stop-opacity="0"/>
    </radialGradient>
    <radialGradient id="nebulaTeal" cx="50%" cy="50%" r="50%">
      <stop offset="0%" stop-color="#36e2c9" stop-opacity="0.4"/>
      <stop offset="100%" stop-color="#36e2c9" stop-opacity="0"/>
    </radialGradient>
    <radialGradient id="nebulaPurple" cx="50%" cy="50%" r="50%">
      <stop offset="0%" stop-color="#8a4dff" stop-opacity="0.5"/>
      <stop offset="100%" stop-color="#8a4dff" stop-opacity="0"/>
    </radialGradient>
    <linearGradient id="panel" x1="0%" y1="0%" x2="0%" y2="100%">
      <stop offset="0%" stop-color="#ffffff" stop-opacity="0.18"/>
      <stop offset="100%" stop-color="#ffffff" stop-opacity="0.05"/>
    </linearGradient>
    <linearGradient id="goldText" x1="0%" y1="0%" x2="100%" y2="0%">
      <stop offset="0%" stop-color="#fff2c4"/>
      <stop offset="50%" stop-color="#ffd86b"/>
      <stop offset="100%" stop-color="#fff2c4"/>
    </linearGradient>
    <radialGradient id="ringGlow" cx="50%" cy="50%" r="50%">
      <stop offset="80%" stop-color="#ffffff" stop-opacity="0"/>
      <stop offset="100%" stop-color="#ffe9a8" stop-opacity="0.6"/>
    </radialGradient>
    <filter id="glow" x="-50%" y="-50%" width="200%" height="200%">
      <feGaussianBlur stdDeviation="6" result="b"/>
      <feMerge>
        <feMergeNode in="b"/>
        <feMergeNode in="SourceGraphic"/>
      </feMerge>
    </filter>
  </defs>

  <rect x="0" y="0" width="1285" height="1820" fill="url(#bg)"/>

  <!-- nebula clouds -->
  <circle cx="180" cy="1000" r="420" fill="url(#nebulaPink)"/>
  <circle cx="1150" cy="1250" r="380" fill="url(#nebulaTeal)"/>
  <circle cx="1000" cy="1500" r="350" fill="url(#nebulaPurple)"/>
  <circle cx="100" cy="300" r="300" fill="url(#nebulaPurple)" opacity="0.6"/>

  <!-- sun / atom core glow (kept clear of the title text below) -->
  <circle cx="950" cy="250" r="320" fill="url(#sun)"/>

  <!-- multi-layer star field -->
  <g fill="#ffffff">
    <circle cx="120" cy="140" r="3"/><circle cx="220" cy="260" r="2"/><circle cx="80" cy="340" r="2.5"/>
    <circle cx="300" cy="120" r="2"/><circle cx="1120" cy="180" r="2"/><circle cx="1190" cy="300" r="3"/>
    <circle cx="60" cy="600" r="2"/><circle cx="1200" cy="620" r="2.5"/><circle cx="40" cy="900" r="2"/>
    <circle cx="1230" cy="950" r="2"/><circle cx="500" cy="90" r="2"/><circle cx="700" cy="150" r="2.5"/>
    <circle cx="850" cy="60" r="2"/><circle cx="150" cy="480" r="2"/><circle cx="1080" cy="480" r="2"/>
    <circle cx="970" cy="140" r="2"/><circle cx="420" cy="220" r="1.8"/><circle cx="1260" cy="120" r="2"/>
    <circle cx="30" cy="200" r="1.8"/><circle cx="640" cy="40" r="2"/><circle cx="1140" cy="60" r="1.8"/>
  </g>
  <g fill="#ffe9a8" filter="url(#glow)">
    <circle cx="200" cy="180" r="3.5"/><circle cx="1100" cy="240" r="3.5"/>
    <circle cx="60" cy="520" r="3"/><circle cx="1220" cy="500" r="3.5"/>
  </g>

  <!-- shooting stars / comets -->
  <g stroke="#ffe9a8" stroke-linecap="round" opacity="0.85">
    <line x1="980" y1="80" x2="1100" y2="140" stroke-width="3"/>
    <line x1="180" y1="220" x2="280" y2="270" stroke-width="2.5"/>
    <line x1="1050" y1="700" x2="1150" y2="745" stroke-width="2.5"/>
  </g>

  <!-- Incheon landmark skyline: cable-stayed bridge (Incheon Bridge) + stadium dome (Asiad Main Stadium) + Songdo towers -->
  <path d="M0 1180 L1285 1180 L1285 1820 L0 1820 Z" fill="#2a1140" opacity="0.85"/>
  <path d="M0 1280 L1285 1280 L1285 1820 L0 1820 Z" fill="#190a2c"/>

  <!-- Songdo tower cluster (left) -->
  <g fill="#22103d">
    <rect x="40" y="1020" width="46" height="260"/>
    <rect x="96" y="1080" width="38" height="200"/>
    <rect x="144" y="940" width="52" height="340"/>
    <rect x="206" y="1060" width="34" height="220"/>
  </g>
  <g fill="#ffe9a8" opacity="0.65">
    <rect x="50" y="1050" width="6" height="9"/><rect x="68" y="1080" width="6" height="9"/><rect x="50" y="1110" width="6" height="9"/>
    <rect x="106" y="1110" width="6" height="9"/><rect x="120" y="1140" width="6" height="9"/>
    <rect x="156" y="980" width="6" height="9"/><rect x="174" y="1010" width="6" height="9"/><rect x="156" y="1040" width="6" height="9"/><rect x="174" y="1070" width="6" height="9"/>
    <rect x="214" y="1100" width="6" height="9"/><rect x="226" y="1130" width="6" height="9"/>
  </g>

  <!-- Incheon Bridge (cable-stayed) spanning the centre -->
  <g stroke="#190a2c" stroke-width="5">
    <line x1="430" y1="1180" x2="430" y2="980"/>
    <line x1="900" y1="1180" x2="900" y2="980"/>
  </g>
  <circle cx="430" cy="975" r="6" fill="#ffe9a8"/>
  <circle cx="900" cy="975" r="6" fill="#ffe9a8"/>
  <g stroke="#ffe9a8" stroke-width="1.5" opacity="0.6">
    <line x1="430" y1="985" x2="300" y2="1180"/><line x1="430" y1="1015" x2="340" y2="1180"/><line x1="430" y1="1045" x2="380" y2="1180"/>
    <line x1="430" y1="985" x2="560" y2="1180"/><line x1="430" y1="1015" x2="520" y2="1180"/><line x1="430" y1="1045" x2="480" y2="1180"/>
    <line x1="900" y1="985" x2="770" y2="1180"/><line x1="900" y1="1015" x2="810" y2="1180"/><line x1="900" y1="1045" x2="850" y2="1180"/>
    <line x1="900" y1="985" x2="1030" y2="1180"/><line x1="900" y1="1015" x2="990" y2="1180"/><line x1="900" y1="1045" x2="950" y2="1180"/>
  </g>
  <path d="M150 1180 Q665 1230 1180 1180" stroke="#ffe9a8" stroke-width="6" fill="none" opacity="0.85"/>

  <!-- Incheon Asiad Main Stadium dome (event venue) -->
  <g transform="translate(1080,1180)">
    <path d="M-150 0 A150 95 0 0 1 150 0 Z" fill="#22103d"/>
    <path d="M-150 0 A150 95 0 0 1 150 0" fill="none" stroke="#ffe9a8" stroke-width="3" opacity="0.7"/>
    <path d="M-150 0 L-150 -8 M-100 -75 L-100 -83 M-50 -92 L-50 -100 M0 -95 L0 -103 M50 -92 L50 -100 M100 -75 L100 -83 M150 0 L150 -8" stroke="#ffe9a8" stroke-width="2.5" opacity="0.6"/>
  </g>

  <!-- gentle hill silhouette finishing the horizon -->
  <path d="M0 1280 L180 1230 L340 1260 L500 1210 L680 1250 L860 1220 L1040 1255 L1285 1210 L1285 1820 L0 1820 Z" fill="#190a2c"/>

  <!-- orbit / atom motif -->
  <g transform="translate(950,250)">
    <circle r="260" fill="url(#ringGlow)"/>
    <ellipse rx="250" ry="90" fill="none" stroke="#ffffff" stroke-width="3" opacity="0.6" transform="rotate(20)"/>
    <ellipse rx="250" ry="90" fill="none" stroke="#ffffff" stroke-width="3" opacity="0.45" transform="rotate(-35)"/>
    <ellipse rx="250" ry="90" fill="none" stroke="#ffe9a8" stroke-width="2" opacity="0.5" transform="rotate(75)"/>
    <circle r="14" fill="#fff6d8" filter="url(#glow)"/>
    <circle cx="217" cy="17" r="8" fill="#ffe9a8" filter="url(#glow)"/>
    <circle cx="-195" cy="-46" r="7" fill="#ffe9a8" filter="url(#glow)"/>
  </g>

  <!-- rocket with flame trail -->
  <g transform="translate(245,580) rotate(-25)">
    <path d="M0 60 C-30 130 -10 190 0 230" stroke="#ffce5c" stroke-width="14" fill="none" opacity="0.6" stroke-linecap="round" filter="url(#glow)"/>
    <path d="M0 60 C-15 110 -5 150 0 175" stroke="#fff6d8" stroke-width="7" fill="none" opacity="0.8" stroke-linecap="round"/>
    <path d="M0 -65 C30 -32 30 32 0 65 C-30 32 -30 -32 0 -65 Z" fill="#fff6d8"/>
    <path d="M-13 32 L-44 75 L-9 58 Z" fill="#ffce5c"/>
    <path d="M13 32 L44 75 L9 58 Z" fill="#ffce5c"/>
    <circle cx="0" cy="-16" r="11" fill="#3a0f5e"/>
    <circle cx="0" cy="-16" r="6" fill="#36e2c9"/>
  </g>

  <!-- satellite (sky decoration) -->
  <g transform="translate(1190,690) rotate(30)" stroke="#ffe9a8" stroke-width="3.5" fill="none" opacity="0.9">
    <rect x="-16" y="-10" width="32" height="20" rx="3" fill="#3a0f5e"/>
    <rect x="-46" y="-3" width="26" height="6" fill="#ffe9a8" stroke="none"/>
    <rect x="20" y="-3" width="26" height="6" fill="#ffe9a8" stroke="none"/>
    <line x1="0" y1="10" x2="0" y2="28"/>
    <circle cx="0" cy="32" r="3" fill="#36e2c9" stroke="none"/>
  </g>

  <!-- ringed planet (sky decoration), reimagined as an eco-tech globe: leaf + circuit lines on the sphere -->
  <g transform="translate(170,260)" opacity="0.95">
    <circle r="30" fill="#2fae6b"/>
    <path d="M-30 0 C-30 -16 30 -16 30 0 C30 16 -30 16 -30 0 Z" fill="none" stroke="#1d6b41" stroke-width="2" opacity="0.6"/>
    <path d="M0 -30 C-14 -18 -14 18 0 30" fill="none" stroke="#1d6b41" stroke-width="2" opacity="0.6"/>
    <path d="M-6 8 C-6 -4 4 -10 12 -16 C8 -8 10 -2 16 4 C8 6 0 12 -6 8 Z" fill="#bdf2a0"/>
    <circle cx="10" cy="-6" r="2" fill="#36e2c9"/><circle cx="-12" cy="10" r="1.6" fill="#36e2c9"/>
    <ellipse rx="50" ry="13" fill="none" stroke="#ffe9a8" stroke-width="3" transform="rotate(-18)"/>
  </g>

  <!-- STEAM / eco-tech badge: gear interlocked with a sprout, sitting beside the rocket -->
  <g transform="translate(340,640)" opacity="0.95">
    <g fill="none" stroke="#ffe9a8" stroke-width="3.5">
      <circle r="26"/>
      <path d="M0 -26 v8 M0 18 v8 M-26 0 h8 M18 0 h8 M-18.4 -18.4 l5.6 5.6 M12.8 12.8 l5.6 5.6 M-18.4 18.4 l5.6 -5.6 M12.8 -12.8 l5.6 -5.6"/>
    </g>
    <path d="M-3 12 C-3 0 4 -6 10 -12 C7 -4 9 2 14 7 C7 9 0 14 -3 12 Z" fill="#bdf2a0" stroke="#2fae6b" stroke-width="1.5"/>
  </g>

  <!-- subtitle ribbon bookend icons: flask (left) + DNA (right), tied directly to the ribbon -->
  <g transform="translate(235,897) scale(0.62)" stroke="#ffe9a8" stroke-width="4" stroke-linejoin="round">
    <path d="M-10 -45 h20 v22 l20 48 a9 9 0 0 1 -9 12 h-42 a9 9 0 0 1 -9 -12 l20 -48 Z" fill="#ff4fa3" fill-opacity="0.4"/>
    <path d="M-22 0 h44" opacity="0.7"/>
    <circle cx="-6" cy="20" r="3.5" fill="#ffe9a8" stroke="none"/>
  </g>
  <g transform="translate(1050,897) scale(0.55)" stroke="#36e2c9" stroke-width="4" fill="none" opacity="0.95">
    <path d="M-16 -45 C16 -22 -16 0 16 22 C-16 44 16 66 -16 88"/>
    <path d="M16 -45 C-16 -22 16 0 -16 22 C16 44 -16 66 16 88"/>
    <circle cx="-16" cy="-45" r="3" fill="#36e2c9" stroke="none"/><circle cx="16" cy="22" r="3" fill="#ffe9a8" stroke="none"/>
    <circle cx="-16" cy="88" r="3" fill="#36e2c9" stroke="none"/>
  </g>

  <!-- connector line from title group down to the info-icon strip -->
  <line x1="642" y1="950" x2="642" y2="1372" stroke="#ffe9a8" stroke-width="1.5" stroke-dasharray="2 10" opacity="0.5"/>

  <!-- icon strip bridging illustration and the info panel: drawn as a connected network of nodes -->
  <g transform="translate(0,1372)">
    <path d="M330 -50 L490 -50 L650 -50 L810 -50 L970 -50 M330 -50 L330 0 M490 -50 L490 0 M650 -50 L650 0 M810 -50 L810 0 M970 -50 L970 0"
          stroke="#36e2c9" stroke-width="1.5" stroke-dasharray="2 8" opacity="0.5" fill="none"/>
    <circle cx="330" cy="-50" r="3" fill="#36e2c9" opacity="0.8"/><circle cx="490" cy="-50" r="3" fill="#36e2c9" opacity="0.8"/>
    <circle cx="650" cy="-50" r="3" fill="#36e2c9" opacity="0.8"/><circle cx="810" cy="-50" r="3" fill="#36e2c9" opacity="0.8"/>
    <circle cx="970" cy="-50" r="3" fill="#36e2c9" opacity="0.8"/>
    <line x1="270" y1="0" x2="1015" y2="0" stroke="#ffe9a8" stroke-width="1.5" stroke-dasharray="2 8" opacity="0.4"/>
    <g transform="translate(330,0)">
      <circle r="34" fill="#120726" stroke="url(#goldText)" stroke-width="2"/>
      <g stroke="#ff4fa3" stroke-width="3" fill="none">
        <ellipse rx="20" ry="8" transform="rotate(20)"/><ellipse rx="20" ry="8" transform="rotate(-40)"/><ellipse rx="20" ry="8" transform="rotate(80)"/>
        <circle r="4" fill="#fff6d8" stroke="none"/>
      </g>
    </g>
    <g transform="translate(490,0)">
      <circle r="34" fill="#120726" stroke="url(#goldText)" stroke-width="2"/>
      <g stroke="#ffe9a8" stroke-width="4" fill="none">
        <circle r="14" fill="#36e2c9" fill-opacity="0.2" cx="-4" cy="-4"/>
        <line x1="6" y1="6" x2="16" y2="16"/>
      </g>
    </g>
    <g transform="translate(650,0)">
      <circle r="34" fill="#120726" stroke="url(#goldText)" stroke-width="2"/>
      <g stroke="#ffe9a8" stroke-width="3" fill="none">
        <path d="M0 -14 C-16 -20 -28 -16 -28 -16 V14 C-28 14 -16 10 0 16 C16 10 28 14 28 14 V-16 C28 -16 16 -20 0 -14 Z" fill="#a31f5c" fill-opacity="0.4"/>
        <line x1="0" y1="-14" x2="0" y2="16"/>
      </g>
    </g>
    <g transform="translate(810,0)">
      <circle r="34" fill="#120726" stroke="url(#goldText)" stroke-width="2"/>
      <circle cx="0" cy="-6" r="13" fill="#ffe9a8" fill-opacity="0.2" stroke="#ffe9a8" stroke-width="3"/>
      <path d="M-6 6 h12 M-5 11 h10 M-4 16 h8" stroke="#ffe9a8" stroke-width="3" stroke-linecap="round"/>
    </g>
    <g transform="translate(970,0)">
      <circle r="34" fill="#120726" stroke="url(#goldText)" stroke-width="2"/>
      <g stroke="#36e2c9" stroke-width="3" fill="none" stroke-linejoin="round">
        <path d="M0 -16 L20 -6 L0 4 L-20 -6 Z" fill="#36e2c9" fill-opacity="0.2"/>
        <path d="M-12 -1 V10 C-12 14 12 14 12 10 V-1"/>
        <line x1="20" y1="-6" x2="20" y2="8"/>
        <circle cx="20" cy="11" r="2" fill="#36e2c9"/>
      </g>
    </g>
  </g>

  <!-- confetti / particle bits scattered -->
  <g opacity="0.85">
    <rect x="330" y="980" width="10" height="10" fill="#ff4fa3" transform="rotate(20 335 985)"/>
    <rect x="960" y="940" width="9" height="9" fill="#36e2c9" transform="rotate(-15 965 945)"/>
    <rect x="780" y="1010" width="8" height="8" fill="#ffe9a8" transform="rotate(35 784 1014)"/>
    <circle cx="420" cy="940" r="5" fill="#8a4dff"/>
    <circle cx="900" cy="1000" r="4" fill="#ff4fa3"/>
    <circle cx="600" cy="1020" r="4.5" fill="#36e2c9"/>
  </g>

  <!-- soft cloud bands behind skyline -->
  <g fill="#ffffff" opacity="0.08">
    <ellipse cx="300" cy="1020" rx="220" ry="40"/>
    <ellipse cx="900" cy="980" rx="260" ry="46"/>
    <ellipse cx="1150" cy="1040" rx="180" ry="34"/>
  </g>

  <!-- decorative corner frame accents -->
  <g stroke="#ffe9a8" stroke-width="3" opacity="0.8" fill="none">
    <path d="M40 40 h70 M40 40 v70"/>
    <path d="M1245 40 h-70 M1245 40 v70"/>
    <path d="M40 1780 h70 M40 1780 v-70"/>
    <path d="M1245 1780 h-70 M1245 1780 v-70"/>
  </g>

  <!-- title block -->
  <g fill="url(#goldText)">
    <path d="M210 700 l6 -14 l6 14 l14 6 l-14 6 l-6 14 l-6 -14 l-14 -6 Z"/>
    <path d="M1080 700 l6 -14 l6 14 l14 6 l-14 6 l-6 14 l-6 -14 l-14 -6 Z"/>
  </g>
  <text x="642" y="700" text-anchor="middle" fill="url(#goldText)" font-size="34" letter-spacing="5" filter="url(#glow)">THE 28th INCHEON SCIENCE FESTIVAL</text>

  <text x="642" y="795" text-anchor="middle" fill="#ffffff" font-size="98" font-weight="700" filter="url(#glow)">제28회 인천과학대제전</text>

  <rect x="262" y="852" width="700" height="90" rx="14" fill="url(#panel)" stroke="url(#goldText)" stroke-width="2"/>
  <text x="612" y="910" text-anchor="middle" fill="url(#goldText)" font-size="42" font-weight="700">인천을 넘어 세계로, 과학이 여는 미래</text>

  <!-- free-admission detail badge, restyled to match the warm gold/glass palette of the ribbon -->
  <rect x="978" y="852" width="118" height="90" rx="14" fill="url(#panel)" stroke="url(#goldText)" stroke-width="2"/>
  <text x="1037" y="890" text-anchor="middle" fill="url(#goldText)" font-size="24" font-weight="700">무료</text>
  <text x="1037" y="918" text-anchor="middle" fill="#ffffff" font-size="22" font-weight="700">입장</text>

  <!-- info panel -->
  <rect x="160" y="1410" width="965" height="350" rx="26" fill="#120726" opacity="0.8" stroke="url(#goldText)" stroke-width="2"/>
  <rect x="160" y="1410" width="965" height="350" rx="26" fill="none" stroke="#ffffff" stroke-width="1" opacity="0.25"/>

  <!-- inline icon badges for each info line -->
  <g stroke="#ffd86b" stroke-width="2.5" fill="none">
    <g transform="translate(212,1473)"><rect x="-14" y="-13" width="28" height="24" rx="3"/><line x1="-14" y1="-5" x2="14" y2="-5"/><line x1="-7" y1="-17" x2="-7" y2="-11"/><line x1="7" y1="-17" x2="7" y2="-11"/></g>
    <g transform="translate(212,1523)"><circle r="13"/><line x1="0" y1="-7" x2="0" y2="0"/><line x1="0" y1="0" x2="7" y2="4"/></g>
    <g transform="translate(212,1573)"><path d="M0 -14 C9 -14 14 -8 14 -2 C14 8 0 18 0 18 C0 18 -14 8 -14 -2 C-14 -8 -9 -14 0 -14 Z"/><circle cx="0" cy="-2" r="4"/></g>
    <g transform="translate(212,1623)"><circle r="13"/><ellipse rx="6" ry="13"/><line x1="-13" y1="0" x2="13" y2="0"/></g>
    <g transform="translate(212,1673)"><path d="M-13 12 V-8 L0 -16 L13 -8 V12 Z"/><line x1="-13" y1="12" x2="13" y2="12"/><rect x="-4" y="0" width="8" height="12"/></g>
  </g>

  <g fill="#ffffff" font-size="32">
    <text x="240" y="1482"><tspan fill="#ffd86b" font-weight="700">기간 </tspan>2026.10.23.(금) ~ 10.24.(토)</text>
    <text x="240" y="1532"><tspan fill="#ffd86b" font-weight="700">운영시간 </tspan>10:00 ~ 17:00</text>
    <text x="240" y="1582"><tspan fill="#ffd86b" font-weight="700">장소 </tspan>인천아시아드주경기장</text>
    <text x="240" y="1632"><tspan fill="#ffd86b" font-weight="700">홈페이지 </tspan>인천과학사랑.kr</text>
    <text x="240" y="1682"><tspan fill="#ffd86b" font-weight="700">주최·주관 </tspan>인천광역시교육청</text>
  </g>

  <text x="642" y="1805" text-anchor="middle" fill="#ffd86b" font-size="24" opacity="0.9" letter-spacing="1">#인천과학대제전 #STEAM #제28회 #THE28thINCHEONSCIENCEFESTIVAL</text>
</svg>
